<?xml version="1.0" standalone="no"?>
<!DOCTYPE svg PUBLIC "-//W3C//DTD SVG 20010904//EN"
 "http://www.w3.org/TR/2001/REC-SVG-20010904/DTD/svg10.dtd">
<svg version="1.0" xmlns="http://www.w3.org/2000/svg"
 width="240.000000pt" height="240.000000pt" viewBox="0 0 240.000000 240.000000"
 preserveAspectRatio="xMidYMid meet">
<metadata>
Created by potrace 1.11, written by Peter Selinger 2001-2013
</metadata>
<g transform="translate(0.000000,240.000000) scale(0.100000,-0.100000)"
fill="#000000" stroke="none">
<path d="M1010 2199 c-63 -49 -117 -94 -119 -100 -5 -16 74 -168 108 -209 l28
-34 74 65 c41 35 93 79 115 96 l41 33 -59 117 c-33 65 -63 119 -67 120 -3 1
-58 -39 -121 -88z"/>
<path d="M867 1502 c-61 -32 -181 -102 -264 -156 l-153 -98 0 -50 c0 -27 3
-48 8 -46 4 2 58 29 121 61 63 31 122 57 132 57 23 0 39 -29 39 -74 0 -19 -49
-231 -110 -470 -60 -240 -113 -467 -116 -504 -16 -167 62 -193 272 -93 86 41
412 240 451 275 7 6 16 33 19 59 l7 48 -183 -90 c-102 -51 -194 -91 -211 -91
-19 0 -34 8 -45 25 -29 44 -12 145 91 565 125 510 145 603 133 624 -17 31 -73
19 -191 -42z"/>
<path d="M1444 1198 c-55 -43 -65 -60 -59 -103 14 -102 19 -121 36 -138 11
-10 19 -21 19 -26 0 -4 -24 -24 -54 -45 l-53 -36 -8 -78 c-13 -123 -9 -318 8
-339 12 -17 64 -17 70 0 3 6 6 -30 6 -80 1 -76 -3 -101 -21 -137 -21 -44 -21
-46 -3 -66 22 -24 43 -25 73 -4 21 15 30 53 15 68 -19 18 2 220 28 267 24 45
31 18 28 -98 l-4 -118 62 -9 c71 -10 93 -5 93 23 0 26 -14 33 -61 33 -34 -1
-39 2 -39 21 0 28 29 246 42 315 9 52 10 53 25 32 12 -17 21 -20 46 -14 41 8
57 21 57 46 0 12 9 22 20 25 14 4 24 19 31 49 6 23 19 50 29 59 17 15 21 15
59 -11 23 -14 41 -29 42 -33 0 -3 2 -17 3 -30 3 -28 31 -51 62 -51 17 0 23 7
27 36 3 20 14 45 24 56 17 19 17 20 -2 34 -23 17 -72 18 -77 2 -6 -16 -108 48
-108 67 0 20 -49 55 -78 55 -23 0 -122 64 -122 78 1 4 7 18 15 32 8 14 14 38
15 53 0 24 -8 31 -62 57 -79 38 -142 40 -184 8z m251 -234 c30 -20 53 -40 50
-43 -2 -4 -6 -21 -9 -37 -5 -26 -46 -74 -64 -74 -4 0 -18 20 -32 45 -14 25
-30 45 -38 45 -9 0 -10 5 -2 19 5 11 10 28 10 38 0 16 17 43 27 43 2 0 28 -16
58 -36z m310 -166 c-11 -36 -25 -45 -25 -17 0 27 7 39 22 39 5 0 6 -10 3 -22z"/>
</g>
</svg>
